<?xml version="1.0" encoding="UTF-8"?>
<svg width="107px" height="107px" viewBox="0 0 107 107" version="1.1" xmlns="http://www.w3.org/2000/svg" xmlns:xlink="http://www.w3.org/1999/xlink" style="background: #FFFFFF;">
    <!-- Generator: Sketch 48.2 (47327) - http://www.bohemiancoding.com/sketch -->
    <title>Artboard 4</title>
    <desc>Created with Sketch.</desc>
    <defs></defs>
    <g id="Symbols" stroke="none" stroke-width="1" fill="none" fill-rule="evenodd">
        <g id="Artboard-4" fill="#000000">
            <path d="M76.2992678,51.3581413 L91.170798,46.0144086 C88.5096553,50.3649418 76.7787825,54.3281064 76.7787825,54.3281064 C78.6446774,54.8820751 84.4323657,61.830976 84.4323657,61.830976 C84.4323657,61.830976 77.7796277,58.0237453 73.7410578,55.6400573 C69.702488,53.2563693 60.4242716,55.8508551 60.4242716,55.8508551 C69.5864728,60.7212795 69.8364521,71.0095385 69.8364521,71.0095385 C65.7913816,63.2381804 56.3963359,56.0409649 56.3963359,56.0409649 L38.9583409,57.5909674 C56.9648236,64.9946176 55.8320689,74.1383407 55.8320689,74.1383407 C47.2403389,60.6780115 34.5897291,59.4509067 34.5897291,59.4509067 L22.8853848,60.6134172 C20.2177414,59.5762803 24.6603861,56.8146324 24.6603861,56.8146324 L31.9248041,55.7184818 C40.2334606,56.2039812 48.1234614,34.9169959 48.1234614,34.9169959 C48.2963037,43.6371266 39.9962735,54.0836112 39.9962735,54.0836112 L54.0143158,53.5901021 C57.2493831,52.8026457 65.5932329,36.3214805 65.5932329,36.3214805 C65.5820527,44.3458491 59.6548092,52.2420272 59.6548092,52.2420272 L72.9545682,51.0956777 C74.0275948,51.0522999 78.5792302,39.2094313 78.5792302,39.2094313 L76.2992678,51.3581413 Z M60.2442211,85.9890614 C41.4670132,86.2885547 27.4529704,80.492776 22.3077437,61.8452141 C22.3077437,61.8452141 2.30855486,64.6885254 -2.07666426,79.1637819 C-1.76168441,77.9826601 -1.88640466,78.2417321 -1.88640466,78.9509654 C-1.88640466,79.6601986 -2.99798875,82.1221579 -3.95509017,79.1637819 C-3.95509017,79.1637819 -6.21458576,56.703448 21.3200036,57.2944187 C21.3200036,57.2944187 20.979063,22.7757159 48.4076335,20.1679453 C74.5201002,17.6951624 109,43.3466791 109,43.3466791 C109,43.3466791 86.1690851,84.4676377 60.2442211,85.9890614 Z" id="Fill-1" transform="translate(52.500000, 53.000000) rotate(-20.000000) translate(-52.500000, -53.000000) "></path>
        </g>
    </g>
</svg>